<?xml version="1.0" encoding="UTF-8" standalone="no"?>
<svg
   width="512"
   height="512"
   viewBox="0 0 512 512"
   version="1.1"
   id="svg46"
   sodipodi:docname="abstract-icon-design-with-text--curiosity---orange.svg"
   inkscape:version="1.4.2 (ebf0e940, 2025-05-08)"
   xmlns:inkscape="http://www.inkscape.org/namespaces/inkscape"
   xmlns:sodipodi="http://sodipodi.sourceforge.net/DTD/sodipodi-0.dtd"
   xmlns="http://www.w3.org/2000/svg"
   xmlns:svg="http://www.w3.org/2000/svg">
  <sodipodi:namedview
     id="namedview46"
     pagecolor="#ffffff"
     bordercolor="#000000"
     borderopacity="0.25"
     inkscape:showpageshadow="2"
     inkscape:pageopacity="0.0"
     inkscape:pagecheckerboard="0"
     inkscape:deskcolor="#d1d1d1"
     showgrid="false"
     inkscape:zoom="1.7900065"
     inkscape:cx="227.93214"
     inkscape:cy="244.69185"
     inkscape:window-width="1424"
     inkscape:window-height="821"
     inkscape:window-x="0"
     inkscape:window-y="31"
     inkscape:window-maximized="1"
     inkscape:current-layer="svg46">
    <inkscape:page
       x="0"
       y="0"
       width="512"
       height="512"
       id="page2"
       margin="0"
       bleed="0" />
  </sodipodi:namedview>
  <path
     fill="#003049"
     d="M 248.101,51.5603 C 360.938,47.2012 455.942,135.142 460.298,247.979 464.653,360.815 376.709,455.817 263.872,460.168 151.04,464.519 56.0446,376.581 51.6897,263.749 47.3348,150.918 135.27,55.9192 248.101,51.5603 Z"
     id="path1"
     sodipodi:nodetypes="sccss" />
  <path
     fill="#d62828"
     d="m 143.904,288.677 c -9.743,-41.595 -5.428,-80.668 24.488,-113.79 44.132,-48.86 121.059,-50.245 169.422,-6.118 15.421,0.037 61.055,-2.369 67.479,17.52 6.08,18.821 -23.031,33.417 -33.61,42.97 -1.818,1.099 -3.256,1.991 -4.975,3.226 -0.201,-0.755 -0.553,-6.725 -0.729,-8.186 -3.486,-0.018 -6.957,-0.04 -10.442,0 -0.423,1.316 -0.265,3.605 0,4.96 -0.127,2.694 -0.112,4.448 0,7.117 v 1.486 8.041 c 0.008,3.387 0.157,7.906 0,11.198 0.012,1.918 0.204,10.487 0,11.872 -0.059,1.574 0.003,2.25 -0.7,3.692 -0.365,1.694 -1.107,5.602 -1.615,7.11 1.555,6.579 11.994,7.31 15.214,9.939 -2.926,7.596 -5.5,14.632 -9.579,21.724 -36.8,64.001 -118.444,79.193 -176.793,35.542 -14.036,2.357 -81.461,8.553 -74.158,-20.23 4.191,-16.516 22.511,-29.168 35.998,-38.073 z"
     id="path2" />
  <defs
     id="defs3">
    <linearGradient
       id="gradient_0"
       gradientUnits="userSpaceOnUse"
       x1="269.80997"
       y1="317.08807"
       x2="232.68187"
       y2="210.32716"
       gradientTransform="translate(17.860465,1.7009967)">
      <stop
         offset="0"
         stop-color="#CB2924"
         id="stop2" />
      <stop
         offset="1"
         stop-color="#D7394B"
         id="stop3" />
    </linearGradient>
  </defs>
  <path
     fill="url(#gradient_0)"
     d="m 205.32547,239.563 c 1.461,-0.665 6.002,-11.351 7.391,-13.853 30.199,-54.405 109.356,-45.464 126.733,13.333 v 0.52 c 2.041,0.793 3.266,1.43 5.005,2.81 -1.052,2.532 -3.438,6.642 -3.721,8.928 0.347,2.412 -0.396,5.951 0,8.595 4.925,4.541 5.749,14.708 1.319,19.882 -0.687,0.804 -3.518,2.941 -3.961,3.608 -1.201,1.393 -4.151,2.081 -4.753,2.873 -1.065,1.4 -2.485,3.622 -3.662,5.156 -1.228,1.386 -5.921,6.467 -6.396,7.651 -3.129,1.63 -6.174,3.889 -9.068,5.935 -9.761,6.902 -20.346,11.345 -31.157,16.261 -1.393,0.005 -3.021,0.238 -4.427,0.41 -23.823,2.921 -48.122,-7.517 -61.103,-28.347 -1.524,-2.35 -2.745,-4.19 -4.452,-6.43 -0.344,-6.411 -3.757,-3.167 -6.955,-3.981 -0.553,-1.468 -0.239,-2.742 -0.793,-4.315 l -0.008,-26.706 c -10e-4,-2.8 -0.252,-9.949 0.008,-12.33 z"
     id="path3"
     style="fill:url(#gradient_0)" />
  <path
     fill="#d62828"
     d="m 187.465,237.862 c 1.461,-0.665 6.002,-11.351 7.391,-13.853 30.199,-54.405 109.356,-45.464 126.733,13.333 v 0.52 c -6.012,-1.896 -10.116,-2.029 -16.169,-0.52 -4.826,-9.05 -11.309,-18.481 -20.407,-23.772 -1.804,-4.018 -20.896,-9.012 -25.612,-9.327 -3.808,-0.255 -7.879,0.445 -11.635,0.002 -15.96,4.895 -33.019,13.279 -39.393,29.926 -0.872,1.351 -1.043,1.704 -1.642,3.171 -0.012,2.554 -0.076,5.296 0,7.834 4.069,-5.337 6.173,-7.233 13.047,-7.834 0.036,3.719 0.214,8.624 0,12.258 -11.853,-3.485 -12.6,6.937 -12.088,15.239 0.436,0.422 2.528,8.6 2.853,9.763 l -0.16,0.282 c -0.991,-1.871 -1.49,-4.248 -1.912,-6.314 -0.612,2.113 0.753,12.769 -0.76,13.854 -0.984,0.706 -11.559,-0.375 -12.363,0.514 0.141,2.547 4.6,7.476 4.317,8.686 -1.524,-2.35 -2.745,-4.19 -4.452,-6.43 -0.344,-6.411 -3.757,-3.167 -6.955,-3.981 -0.553,-1.468 -0.239,-2.742 -0.793,-4.315 l -0.008,-26.706 c -0.001,-2.8 -0.252,-9.949 0.008,-12.33 z"
     id="path4" />
  <path
     fill="#fdcd49"
     d="m 195.213,237.342 c 3.715,0.061 7.948,-0.212 11.518,0 -0.012,2.554 -0.076,5.296 0,7.834 4.069,-5.337 6.173,-7.233 13.047,-7.834 0.036,3.719 0.214,8.624 0,12.258 -11.853,-3.485 -12.6,6.937 -12.088,15.239 -0.195,1.493 -0.082,5.321 -0.06,6.958 l 0.06,10.356 h -12.477 z"
     id="path5" />
  <path
     fill="#fdcd49"
     d="m 305.42,237.342 c 6.053,-1.509 10.157,-1.376 16.169,0.52 2.041,0.793 3.266,1.43 5.005,2.81 -1.052,2.532 -3.438,6.642 -3.721,8.928 0.347,2.412 -0.396,5.951 0,8.595 4.925,4.541 5.749,14.708 1.319,19.882 -0.687,0.804 -3.518,2.941 -3.961,3.608 -7.692,1.735 -21.898,1.891 -27.802,-4.234 l 0.084,-0.553 c -0.195,-0.753 4.498,-8.51 5.352,-8.965 3.042,0.657 2.279,-3.289 2.264,-5.777 -1.698,-2.88 -8.219,-10.03 -5.133,-13.976 2.027,-4.696 1.204,-6.066 6.344,-9.312 1.467,-0.616 2.569,-1.03 4.08,-1.526 z"
     id="path6" />
  <path
     fill="#7e2d25"
     d="m 294.996,248.18 c -0.541,20.21 28.763,15.27 19.264,23.421 -4.878,4.185 -12.324,-0.048 -16.256,-3.409 -1.089,1.708 -4.484,7.676 -5.491,8.706 -0.195,-0.753 4.498,-8.51 5.352,-8.965 3.042,0.657 2.279,-3.289 2.264,-5.777 -1.698,-2.88 -8.219,-10.03 -5.133,-13.976 z"
     id="path7" />
  <path
     fill="#7e2d25"
     d="m 322.873,258.195 c -4.355,-4.262 -9.806,-4.448 -14.88,-7.054 -4.83,-2.48 2.627,-7.691 8.818,-4.138 1.179,0.677 4.911,3.073 5.595,3.107 l 0.467,-0.51 c 0.347,2.412 -0.396,5.951 0,8.595 z"
     id="path8" />
  <path
     fill="#d75a69"
     d="m 208.373,234.171 c 6.374,-16.647 23.433,-25.031 39.393,-29.926 2.766,2.944 0.219,1.573 -0.393,2.826 0.598,1.037 1.634,0.671 0.986,2.077 -6.644,3.119 -3.874,3.406 -8.043,8.141 -1.145,1.3 -4.66,2.59 -4.681,2.628 -1.229,2.196 -2.932,3.601 -4.924,5.315 -1.105,3.578 -2.897,0.409 -4.938,3.001 -3.296,4.189 -12.195,6.323 -17.4,5.938 z"
     id="path9" />
  <path
     fill="#d75a69"
     d="m 285.013,213.57 c 9.098,5.291 15.581,14.722 20.407,23.772 -1.511,0.496 -2.613,0.91 -4.08,1.526 0.131,-1.32 2.395,-0.906 3.367,-2.035 -4.281,-8.288 -9.536,-5.434 -14.239,-11.739 0.156,0.21 -0.392,-1.135 -0.383,-1.114 -0.259,0.612 -0.107,0.477 -0.551,0.885 l -0.4,-0.931 c -0.614,0.684 -0.876,5.722 -1.051,7.095 -5.075,2.217 -7.287,2.11 -12.372,0 -2.713,-15.814 7.991,-9.408 10.247,-12.222 0.359,-1.804 -0.805,-1.48 0.094,-3.213 l 0.149,-0.28 c -0.106,-0.782 -0.62,-1.151 -1.188,-1.744 z"
     id="path10" />
  <path
     fill="#fdcd49"
     d="m 233.97085,221.43898 c 9.485,-0.135 9.698,10.761 2.311,12.418 -11.03,-0.847 -9.466,-11.455 -2.311,-12.418 z"
     id="path11" />
  <path
     fill="#fdcd49"
     d="m 264.64146,236.888 c 12.782,-2.375 25.076,6.042 27.485,18.817 2.41,12.776 -5.973,25.092 -18.742,27.536 -12.818,2.453 -25.192,-5.969 -27.61,-18.794 -2.419,-12.824 6.037,-25.175 18.867,-27.559 z"
     id="path12" />
  <defs
     id="defs13">
    <linearGradient
       id="gradient_1"
       gradientUnits="userSpaceOnUse"
       x1="237.68269"
       y1="252.14371"
       x2="254.55467"
       y2="267.57336"
       gradientTransform="translate(23.6091,0.06828437)">
      <stop
         offset="0"
         stop-color="#AD2425"
         id="stop12" />
      <stop
         offset="1"
         stop-color="#D72927"
         id="stop13" />
    </linearGradient>
  </defs>
  <path
     fill="url(#gradient_1)"
     d="m 268.3031,247.53929 c 14.423,-3.653 16.992,22.426 3.072,25.194 -17.68,1.061 -15.153,-23.749 -3.072,-25.194 z"
     id="path13"
     style="fill:url(#gradient_1)" />
  <path
     fill="#fdcd49"
     d="m 228.93359,238.7125 h 12.372 v 43.823 c -0.478,0.293 -11.036,0.003 -12.372,0 z"
     id="path14"
     sodipodi:nodetypes="ccccc" />
  <defs
     id="defs15">
    <linearGradient
       id="gradient_2"
       gradientUnits="userSpaceOnUse"
       x1="275.12469"
       y1="279.88788"
       x2="298.31396"
       y2="345.2692">
      <stop
         offset="0"
         stop-color="#C12326"
         id="stop14" />
      <stop
         offset="1"
         stop-color="#D72C39"
         id="stop15" />
    </linearGradient>
  </defs>
  <path
     fill="url(#gradient_2)"
     d="m 353.222,245.176 c 0.775,0.292 1.498,0.619 2.315,0.727 0.008,3.387 0.157,7.906 0,11.198 0.012,1.918 0.204,10.487 0,11.872 -0.059,1.574 0.003,2.25 -0.7,3.692 -0.365,1.694 -1.107,5.602 -1.615,7.11 1.555,6.579 11.994,7.31 15.214,9.939 -2.926,7.596 -5.5,14.632 -9.579,21.724 -36.8,64.001 -118.444,79.193 -176.793,35.542 8.152,-1.858 17.593,-2.711 26.309,-4.616 8.684,-1.9 17.939,-4.525 26.495,-7.029 9.992,-3.209 20.82,-7.385 30.327,-11.775 6.48,-2.427 39.863,-20.266 40.759,-25.485 l -0.534,-0.71 c 0.475,-1.184 5.168,-6.265 6.396,-7.651 2.058,-0.994 5.085,-1.957 6.343,-2.945 2.225,0.343 14.473,-8.358 14.261,-2.381 0.755,-1.139 0.553,-1.642 1.625,-2.703 1.568,0.917 9.686,0.511 11.753,0.468 V 270.727 257.101 249.6 c 3.028,-1.279 4.738,-2.552 7.424,-4.424 z"
     id="path15"
     style="fill:url(#gradient_2)" />
  <path
     fill="#d62828"
     d="m 208.373,342.364 c 2.281,2.283 6.274,4.033 9.221,5.244 46.457,19.087 102.288,-1.09 125.903,-45.415 3.698,-6.94 6.753,-15.076 9.725,-22.418 1.555,6.579 11.994,7.31 15.214,9.939 -2.926,7.596 -5.5,14.632 -9.579,21.724 -36.8,64.001 -118.444,79.193 -176.793,35.542 8.152,-1.858 17.593,-2.711 26.309,-4.616 z"
     id="path16" />
  <defs
     id="defs17">
    <linearGradient
       id="gradient_3"
       gradientUnits="userSpaceOnUse"
       x1="280.73621"
       y1="294.58499"
       x2="289.73514"
       y2="329.9249">
      <stop
         offset="0"
         stop-color="#D75A67"
         id="stop16" />
      <stop
         offset="1"
         stop-color="#D77682"
         id="stop17" />
    </linearGradient>
  </defs>
  <path
     fill="url(#gradient_3)"
     d="m 311.816,289.714 c 2.058,-0.994 5.085,-1.957 6.343,-2.945 2.225,0.343 14.473,-8.358 14.261,-2.381 -8.666,21.872 -27.141,37.151 -48.113,46.459 -10.633,4.719 -38.125,9.167 -49.439,4.488 9.992,-3.209 20.82,-7.385 30.327,-11.775 6.48,-2.427 39.863,-20.266 40.759,-25.485 l -0.534,-0.71 c 0.475,-1.184 5.168,-6.265 6.396,-7.651 z"
     id="path17"
     style="fill:url(#gradient_3)" />
  <path
     fill="#7e2d25"
     d="m 353.222,245.176 c 0.775,0.292 1.498,0.619 2.315,0.727 0.008,3.387 0.157,7.906 0,11.198 -0.155,-0.022 -0.307,0.06 -0.458,0.1 l 0.049,0.588 c -1.124,0.587 -6.082,-1.628 -7.369,-1.482 -1.396,0.159 -1.428,-0.229 -1.629,-1.422 l -0.332,2.216 V 249.6 c 3.028,-1.279 4.738,-2.552 7.424,-4.424 z"
     id="path18" />
  <path
     fill="#d72c39"
     d="m 337.814,168.769 c 15.421,0.037 61.055,-2.369 67.479,17.52 6.08,18.821 -23.031,33.417 -33.61,42.97 -1.818,1.099 -3.256,1.991 -4.975,3.226 -0.201,-0.755 -0.553,-6.725 -0.729,-8.186 -3.486,-0.018 -6.957,-0.04 -10.442,0 -0.423,1.316 -0.265,3.605 0,4.96 -0.127,2.694 -0.112,4.448 0,7.117 v 1.486 8.041 c -0.817,-0.108 -1.54,-0.435 -2.315,-0.727 -2.686,1.872 -4.396,3.145 -7.424,4.424 v 7.501 13.626 11.426 c -2.067,0.043 -10.185,0.449 -11.753,-0.468 -1.072,1.061 -0.87,1.564 -1.625,2.703 0.212,-5.977 -12.036,2.724 -14.261,2.381 -1.258,0.988 -4.285,1.951 -6.343,2.945 1.177,-1.534 2.597,-3.756 3.662,-5.156 0.602,-0.792 3.552,-1.48 4.753,-2.873 0.443,-0.667 3.274,-2.804 3.961,-3.608 4.43,-5.174 3.606,-15.341 -1.319,-19.882 -0.396,-2.644 0.347,-6.183 0,-8.595 0.283,-2.286 2.669,-6.396 3.721,-8.928 -1.739,-1.38 -2.964,-2.017 -5.005,-2.81 v -0.52 c 1.018,-0.51 -0.077,-0.009 0.301,-1.075 3.697,-0.638 4.386,0.298 8.479,-0.892 1.752,-1.702 3.033,-4.187 3.603,-4.694 l 0.237,0.42 0.553,-0.072 c -1.134,-1.681 -1.783,-2.479 -2.342,-4.442 0.202,-1.108 0.505,-2.195 0.785,-3.286 -12.415,-27.494 -23.182,-30.766 -45.122,-45.197 v 0 c 10.2,-0.566 20.197,-2.234 30.454,-2.555 7.589,-0.082 17.857,0.951 24.964,0 -1.834,-2.055 -4.349,-3.032 -5.687,-5.968 -0.827,0.099 -1.36,0.035 -2.19,0 z"
     id="path19" />
  <path
     fill="#fcbf49"
     d="m 337.814,168.769 c 15.421,0.037 61.055,-2.369 67.479,17.52 6.08,18.821 -23.031,33.417 -33.61,42.97 -1.818,1.099 -3.256,1.991 -4.975,3.226 -0.201,-0.755 -0.553,-6.725 -0.729,-8.186 -3.486,-0.018 -6.957,-0.04 -10.442,0 v -1.707 c 3.259,-3.875 7.164,-7.204 10.442,-11.142 -2.033,-9.467 -15.108,-27.857 -21.139,-35.097 v -0.804 h -1.339 c -1.834,-2.055 -4.349,-3.032 -5.687,-5.968 -0.827,0.099 -1.36,0.035 -2.19,0 z"
     id="path20" />
  <path
     fill="#003049"
     d="m 344.84,176.353 c 3.065,0.876 6.857,0.894 10.032,1.629 22.207,5.141 24.013,16.551 11.107,33.468 -2.033,-9.467 -15.108,-27.857 -21.139,-35.097 z"
     id="path21" />
  <path
     fill="#d70b27"
     d="m 337.814,169.581 c 1.237,0.62 6.43,5.072 7.026,5.968 h -1.339 c -1.834,-2.055 -4.349,-3.032 -5.687,-5.968 z"
     id="path22" />
  <path
     fill="#d62828"
     d="m 318.537,175.549 c 7.589,-0.082 17.857,0.951 24.964,0 h 1.339 v 0.804 c 6.031,7.24 19.106,25.63 21.139,35.097 -3.278,3.938 -7.183,7.267 -10.442,11.142 -0.707,0.556 -1.55,1.269 -2.315,1.707 -1.819,-1.958 -3.257,-7.029 -4.531,-9.58 -5.831,-11.666 -13.33,-22.371 -22.375,-31.772 -2.292,-2.383 -5.764,-4.869 -7.779,-7.398 z"
     id="path23" />
  <path
     fill="#fdcd49"
     d="m 334.045,237.862 c 3.856,0.022 7.931,-0.179 11.753,0 v 6.186 5.552 7.501 13.626 11.426 c -2.067,0.043 -10.185,0.449 -11.753,-0.468 0.215,-4.06 0.016,-10.206 0.014,-14.449 z"
     id="path24" />
  <path
     fill="#fdcd49"
     d="m 333.205,223.301 c 8.322,-11.535 21.083,4.635 6.7,10.87 -1.545,-0.763 -3.781,-2.088 -5.143,-3.142 -1.134,-1.681 -1.783,-2.479 -2.342,-4.442 0.202,-1.108 0.505,-2.195 0.785,-3.286 z"
     id="path25" />
  <path
     fill="#d75a69"
     d="m 355.537,222.592 v 1.707 c -0.423,1.316 -0.265,3.605 0,4.96 -0.127,2.694 -0.112,4.448 0,7.117 -4.588,-1.061 -5.757,-0.209 -0.632,-1.161 -10e-4,-2.373 -5.979,1.153 -4.187,-7.145 l -0.416,-0.334 -0.573,0.148 c -0.782,0.9 -1.038,2.008 -1.43,3.16 -0.924,-1.829 0.931,-4.059 2.85,-4.457 0.667,-0.556 1.482,-1.596 2.073,-2.288 0.765,-0.438 1.608,-1.151 2.315,-1.707 z"
     id="path26" />
  <path
     fill="#fcbf49"
     d="m 355.537,222.592 v 1.707 c -0.423,1.316 -0.265,3.605 0,4.96 -1.286,-0.931 -2.762,-1.37 -4.388,-2.672 0.667,-0.556 1.482,-1.596 2.073,-2.288 0.765,-0.438 1.608,-1.151 2.315,-1.707 z"
     id="path27" />
  <path
     fill="#b22e26"
     d="m 349.142,241.211 c 1.68,1.274 2.647,2.439 4.08,3.965 -2.686,1.872 -4.396,3.145 -7.424,4.424 v -5.552 c 1.646,-0.065 2.61,-1.535 3.344,-2.837 z"
     id="path28" />
  <defs
     id="defs29">
    <linearGradient
       id="gradient_4"
       gradientUnits="userSpaceOnUse"
       x1="356.35608"
       y1="242.73747"
       x2="350.8035"
       y2="239.40942">
      <stop
         offset="0"
         stop-color="#DCAD40"
         id="stop28" />
      <stop
         offset="1"
         stop-color="#F8C45E"
         id="stop29" />
    </linearGradient>
  </defs>
  <path
     fill="url(#gradient_4)"
     d="m 349.142,241.211 c -0.195,-3.512 3.805,-2.831 6.395,-3.349 v 8.041 c -0.817,-0.108 -1.54,-0.435 -2.315,-0.727 -1.433,-1.526 -2.4,-2.691 -4.08,-3.965 z"
     id="path29"
     style="fill:url(#gradient_4)" />
  <path
     fill="#fcbf49"
     d="m 182.064,346.98 c -14.036,2.357 -81.461,8.553 -74.158,-20.23 4.191,-16.516 22.511,-29.168 35.998,-38.073 1.624,5.264 3.029,9.604 5.296,14.647 5.771,13.385 14.084,26.526 24.638,36.664 15.765,0.52 37.508,-3.549 52.833,-7.734 13.068,-2.285 22.751,-7.658 34.451,-10.904 0.819,-0.473 3.092,-1.375 4.073,-1.789 10.811,-4.916 21.396,-9.359 31.157,-16.261 2.894,-2.046 5.939,-4.305 9.068,-5.935 l 0.534,0.71 c -0.896,5.219 -34.279,23.058 -40.759,25.485 -9.507,4.39 -20.335,8.566 -30.327,11.775 -8.556,2.504 -17.811,5.129 -26.495,7.029 -8.716,1.905 -18.157,2.758 -26.309,4.616 z"
     id="path30" />
  <path
     fill="#003049"
     d="m 173.838,339.988 c -9.417,0.107 -22.714,-1.834 -30.552,-7.073 -11.051,-7.387 -1.243,-23.031 5.914,-29.591 5.771,13.385 14.084,26.526 24.638,36.664 z"
     id="path31" />
  <path
     fill="#fdcd49"
     d="m 305.42,297.365 0.534,0.71 c -0.896,5.219 -34.279,23.058 -40.759,25.485 0.59,-1.1 11.075,-5.486 13.131,-6.673 2.353,-1.358 18.755,-9.52 17.016,-12.04 -4.586,0.879 -27.093,17.003 -34.22,16.503 0.819,-0.473 3.092,-1.375 4.073,-1.789 10.811,-4.916 21.396,-9.359 31.157,-16.261 2.894,-2.046 5.939,-4.305 9.068,-5.935 z"
     id="path32" />
  <path
     fill="#d75a69"
     d="m 174.925,240.672 c -2.205,-6.856 6.786,-1.789 13.023,-3.228 0.616,-1.165 3.085,-6.094 2.841,-7.13 -2.963,-1.577 -12.854,-0.481 -15.939,0.707 -0.706,0.634 -3.979,9.517 -2.875,5.888 12.634,-41.529 53.642,-71.174 97.508,-63.541 6.335,1.102 12.355,3.168 18.6,4.736 21.94,14.431 32.707,17.703 45.122,45.197 -0.28,1.091 -0.583,2.178 -0.785,3.286 0.559,1.963 1.208,2.761 2.342,4.442 l -0.553,0.072 -0.237,-0.42 c -0.57,0.507 -1.851,2.992 -3.603,4.694 -4.093,1.19 -4.782,0.254 -8.479,0.892 -0.378,1.066 0.717,0.565 -0.301,1.075 -17.377,-58.797 -96.534,-67.738 -126.733,-13.333 -1.389,2.502 -5.93,13.188 -7.391,13.853 -3.595,-0.635 -12.747,-1.87 -12.54,2.81 z"
     id="path33" />
  <defs
     id="defs34">
    <linearGradient
       id="gradient_5"
       gradientUnits="userSpaceOnUse"
       x1="223.42517"
       y1="283.19324"
       x2="215.6412"
       y2="330.24493">
      <stop
         offset="0"
         stop-color="#D74F5C"
         id="stop33" />
      <stop
         offset="1"
         stop-color="#D77388"
         id="stop34" />
    </linearGradient>
  </defs>
  <path
     fill="url(#gradient_5)"
     d="m 187.465,276.898 c 0.554,1.573 0.24,2.847 0.793,4.315 3.198,0.814 6.611,-2.43 6.955,3.981 1.707,2.24 2.928,4.08 4.452,6.43 12.981,20.83 37.28,31.268 61.103,28.347 1.406,-0.172 3.034,-0.405 4.427,-0.41 -0.981,0.414 -3.254,1.316 -4.073,1.789 -11.7,3.246 -21.383,8.619 -34.451,10.904 -1.321,-0.861 -5.412,-2.481 -7.081,-3.303 -14.263,-7.022 -33.074,-22.87 -38.714,-38.455 -0.831,-0.63 -3.185,-7.139 -4.228,-7.756 v -0.587 h 10.817 z"
     id="path34"
     style="fill:url(#gradient_5)" />
  <path
     fill="#fdcd49"
     d="m 174.925,240.672 c -0.207,-4.68 8.945,-3.445 12.54,-2.81 -0.26,2.381 -0.009,9.53 -0.008,12.33 l 0.008,26.706 v 5.255 h -10.817 v 0.587 c -3.445,0.887 -19.197,1.677 -20.676,-2.965 -6.831,-5.255 -5.366,-15.519 -5.363,-23.181 l 0.017,-18.732 c 4.057,0.092 8.122,-0.156 12.215,0 0.221,8.438 -3.831,33.515 5.621,34.388 8.004,0.738 6.47,-9.598 6.473,-15.063 z"
     id="path35" />
  <defs
     id="defs36">
    <linearGradient
       id="gradient_6"
       gradientUnits="userSpaceOnUse"
       x1="170.20499"
       y1="279.10275"
       x2="170.31206"
       y2="283.31827">
      <stop
         offset="0"
         stop-color="#8B221B"
         id="stop35" />
      <stop
         offset="1"
         stop-color="#B32321"
         id="stop36" />
    </linearGradient>
  </defs>
  <path
     fill="url(#gradient_6)"
     d="m 155.972,279.775 c 7.439,4.533 13.766,2.932 19.899,-2.877 -0.124,1.551 -0.836,4.578 0.777,5.255 v 0.587 c -3.445,0.887 -19.197,1.677 -20.676,-2.965 z"
     id="path36"
     style="fill:url(#gradient_6)" />
  <path
     fill="#fcbf49"
     d="m 288.083,178.104 c -0.39,-0.638 -0.339,-0.31 -0.211,-1.005 6.02,-3.24 40.003,-7.753 47.752,-7.518 0.83,0.035 1.363,0.099 2.19,0 1.338,2.936 3.853,3.913 5.687,5.968 -7.107,0.951 -17.375,-0.082 -24.964,0 -10.257,0.321 -20.254,1.989 -30.454,2.555 z"
     id="path37" />
  <path
     fill="#f77f00"
     d="m 184.849,183.42 c 4.055,5.182 -0.696,7.149 11.771,11.097 -7.177,1.861 -11.212,4.354 -11.771,12.431 -2.146,-8.104 -5.385,-10.434 -13.006,-12.431 1.492,-0.474 2.582,-0.823 4.028,-1.436 0.286,-2.068 6.992,-8.847 8.978,-9.661 z"
     id="path38" />
  <path
     fill="#d72c39"
     d="m 175.871,193.081 c 0.286,-2.068 6.992,-8.847 8.978,-9.661 -0.799,5.259 -4.489,7.734 -8.978,9.661 z"
     id="path39" />
  <path
     fill="#fcbf49"
     d="m 117.3725,227.13348 c 8.636,-0.599 14.791,0.163 22.112,4.814 -1.11,4.282 -1.954,9.382 -2.798,13.784 -2.779,-3.241 -5.808,-5.75 -10.059,-6.728 -35.189398,-7.752 -30.445398,62.102 10.059,36.363 0.977,-1.962 2.591,11.269 2.798,12.169 -12.148,6.748 -26.589,6.621 -38.253,-1.521 -21.688898,-15.139 -14.770798,-53.852 16.141,-58.881 z"
     id="path40" />
  <path
     fill="#fdcd49"
     d="m 378.76,236.905 h 12.53 c 2.955,8.167 7.436,20.933 9.468,29.106 3.14,-8.693 5.295,-20.331 8.752,-28.669 4.037,-0.246 7.656,-0.274 11.702,0 -0.749,4.048 -2.861,9.078 -4.296,13.031 l -7.406,20.354 c -6.151,16.876 -5.843,27.891 -26.722,25.085 v -11.424 c 6.739,2.864 9.881,3.416 12.122,-4.613 -4.031,-14.582 -11.617,-28.804 -16.15,-42.87 z"
     id="path41"
     sodipodi:nodetypes="ccccccccccc" />
  <path
     fill="#fdcd49"
     d="m 355.537,224.299 c 3.485,-0.04 6.956,-0.018 10.442,0 0.176,1.461 0.528,7.431 0.729,8.186 1.719,-1.235 3.157,-2.127 4.975,-3.226 0.985,2.225 1.359,5.663 1.33,8.083 h 3.468 c 0.008,3.263 0.095,6.896 0,10.129 h -9.201 c -0.007,1.231 -0.083,3.334 0,4.495 0.366,1.151 0.04,3.161 0.529,4.385 0.074,-11.544 6.203,-9.507 6.453,-6.751 -0.154,8.439 0.063,14.448 -1.249,23.065 h 3.468 c 0.534,3.474 0.791,6.006 0,9.488 -2.2,0.084 -4.472,-0.075 -6.409,0 -0.474,3.044 -0.942,4.664 -1.636,7.561 -3.22,-2.629 -13.659,-3.36 -15.214,-9.939 0.508,-1.508 1.25,-5.416 1.615,-7.11 0.703,-1.442 0.641,-2.118 0.7,-3.692 0.204,-1.385 0.012,-9.954 0,-11.872 0.157,-3.292 0.008,-7.811 0,-11.198 v -8.041 -1.486 c -0.112,-2.669 -0.127,-4.423 0,-7.117 -0.265,-1.355 -0.423,-3.644 0,-4.96 z"
     id="path42" />
  <path
     fill="#7e2d25"
     d="m 367.28,251.966 c 0.366,1.151 0.04,3.161 0.529,4.385 0.074,-11.544 6.203,-9.507 6.453,-6.751 -0.154,8.439 0.063,14.448 -1.249,23.065 -2.25,-0.137 -4.197,-0.063 -5.733,-1.938 -0.589,-4.296 -0.06,-14.167 0,-18.761 z"
     id="path43" />
  <path
     fill="#d70b43"
     d="m 367.28,251.966 c 0.366,1.151 0.04,3.161 0.529,4.385 0.074,-11.544 6.203,-9.507 6.453,-6.751 -1.907,-1.378 -5.015,-0.209 -4.427,2.479 0.99,4.528 -1.596,13.863 -2.555,18.648 -0.589,-4.296 -0.06,-14.167 0,-18.761 z"
     id="path44" />
  <path
     fill="#7e2d25"
     d="m 355.537,268.973 c 1.251,9.085 4.68,13.806 14.535,13.18 -0.474,3.044 -0.942,4.664 -1.636,7.561 -3.22,-2.629 -13.659,-3.36 -15.214,-9.939 0.508,-1.508 1.25,-5.416 1.615,-7.11 0.703,-1.442 0.641,-2.118 0.7,-3.692 z"
     id="path45" />
  <path
     fill="#b22e26"
     d="m 371.683,229.259 c 0.985,2.225 1.359,5.663 1.33,8.083 h -6.305 v -4.857 c 1.719,-1.235 3.157,-2.127 4.975,-3.226 z"
     id="path46" />
</svg>
